<svg xmlns="http://www.w3.org/2000/svg" width="24.598" height="29.517" viewBox="0 0 24.598 29.517">
  <path id="rect7223-2-4-9" d="M20.39,12.5a1.636,1.636,0,0,0-1.64,1.64V40.377a1.763,1.763,0,0,0,1.64,1.64H35.148a1.763,1.763,0,0,0,1.64-1.64v-8.2h.82a.8.8,0,0,1,.82.82v3.28a2.174,2.174,0,0,0,2.46,2.46,2.174,2.174,0,0,0,2.46-2.46V27.259c0-1.64-3.28-3.28-3.28-4.92V17.42h-1.64l-1.64-1.64V14.14a1.636,1.636,0,0,0-1.64-1.64Zm1.64,3.28H33.509v6.559H22.03ZM36.788,20.7h1.64v2.46c0,1.64,3.28,3.28,3.28,4.92v8.2a.82.82,0,1,1-1.64,0v-4.1a1.763,1.763,0,0,0-1.64-1.64h-1.64Z" transform="translate(-18.75 -12.5)" fill="#e7fe7a"/>
</svg>
